<svg width="120" height="120" viewBox="0 0 120 120" fill="none" xmlns="http://www.w3.org/2000/svg">
<path d="M25.6135 109.097C35.3669 115.944 47.2054 120 59.9933 120C93.0838 120 119.984 93.0904 119.984 60.0093C119.984 53.577 118.948 47.4052 117.066 41.5848C111.981 25.8552 100.547 12.9857 85.8067 5.92956C77.9709 2.1713 69.2485 -0.00228859 59.991 1.8083e-06C26.9191 -0.00228859 0 26.9328 0 60.0093C0 73.3022 4.40072 85.555 11.7337 95.5062C15.6042 100.749 20.2723 105.341 25.6135 109.097ZM100.882 26.4558C104.576 30.9333 107.55 36.0182 109.616 41.5455C110.066 42.7486 109.391 44.0636 108.169 44.4592L87.1729 51.2454C85.951 51.6411 84.6526 50.9637 84.1521 49.7792C83.4796 48.1851 82.6511 46.67 81.6877 45.2597C80.9616 44.1938 81.0315 42.6673 81.9508 41.7666L97.7036 26.321C98.6203 25.4226 100.066 25.4644 100.882 26.4558ZM72.2856 34.2449L81.7713 14.3496C82.3252 13.1884 83.7167 12.6974 84.8524 13.2978C85.9578 13.8818 87.04 14.5008 88.1011 15.1596C89.1924 15.8393 89.4928 17.3214 88.8108 18.4108L77.0562 37.1425C76.3742 38.2316 74.992 38.4761 73.9052 37.7919C73.7191 37.6731 73.5304 37.5568 73.3397 37.4452C72.232 36.7861 71.7319 35.4061 72.2856 34.2449ZM59.991 44.3496C68.6155 44.3496 75.6416 51.3825 75.6439 60.007C75.6416 68.6387 68.6158 75.6504 59.991 75.6481C51.3665 75.6481 44.3499 68.6387 44.3499 60.007C44.3521 51.3825 51.3688 44.3496 59.991 44.3496ZM19.2671 89.9652L37.0169 76.9165C38.0524 76.1555 39.4999 76.3859 40.3494 77.3516C41.2011 78.3222 42.1227 79.2275 43.1093 80.0629C44.0913 80.8914 44.3521 82.339 43.6166 83.3908L30.9754 101.441C30.2399 102.495 28.7855 102.751 27.7685 101.964C24.4477 99.4019 21.4479 96.4536 18.8133 93.1883C18.008 92.1854 18.2316 90.7287 19.2671 89.9652Z" fill="#03F387"/>
</svg>
