<svg width="30" height="30" viewBox="0 0 30 30" fill="none" xmlns="http://www.w3.org/2000/svg">
<path d="M6.32434 27.2743C8.73258 28.9859 11.6557 30 14.8132 30C22.9836 30 29.6257 23.2726 29.6257 15.0023C29.6257 13.3942 29.37 11.8513 28.9051 10.3962C27.6495 6.46381 24.8264 3.24643 21.1868 1.48239C19.2521 0.542825 17.0984 -0.000572147 14.8126 4.52074e-07C6.64671 -0.000572147 0 6.73321 0 15.0023C0 18.3255 1.08658 21.3887 2.89719 23.8766C3.85287 25.1874 5.00552 26.3353 6.32434 27.2743ZM24.9092 6.61393C25.8212 7.7333 26.5555 9.00458 27.0658 10.3864C27.1767 10.6872 27.0101 11.0159 26.7084 11.1148L21.5242 12.8113C21.2224 12.9103 20.9019 12.7409 20.7783 12.4448C20.6123 12.0463 20.4077 11.6675 20.1698 11.3149C19.9905 11.0484 20.0077 10.6668 20.2348 10.4416L24.1243 6.58021C24.3507 6.35563 24.7075 6.36607 24.9092 6.61393ZM17.8483 8.56124L20.1904 3.58741C20.3272 3.2971 20.6708 3.17435 20.9512 3.32444C21.2242 3.47045 21.4914 3.6252 21.7534 3.7899C22.0228 3.95981 22.097 4.33035 21.9286 4.6027L19.0262 9.28562C18.8578 9.5579 18.5165 9.61904 18.2482 9.44798C18.2022 9.41828 18.1557 9.38918 18.1086 9.36128C17.8351 9.19652 17.7116 8.85152 17.8483 8.56124ZM14.8126 11.0874C16.9421 11.0874 18.677 12.8456 18.6775 15.0018C18.677 17.1597 16.9421 18.9126 14.8126 18.912C12.6831 18.912 10.9506 17.1597 10.9506 15.0018C10.9511 12.8456 12.6836 11.0874 14.8126 11.0874ZM4.75734 22.4913L9.13999 19.2291C9.39563 19.0389 9.75309 19.0965 9.96281 19.3379C10.1731 19.5806 10.4007 19.8069 10.6443 20.0157C10.8868 20.2229 10.9511 20.5847 10.7696 20.8477L7.64825 25.3601C7.46662 25.6237 7.10751 25.6877 6.85643 25.4911C6.03646 24.8504 5.29577 24.1134 4.64528 23.2971C4.44641 23.0463 4.50164 22.6821 4.75734 22.4913Z" fill="white"/>
</svg>
